<?xml version="1.0" encoding="utf-8"?>
<!-- Generator: Adobe Illustrator 23.0.4, SVG Export Plug-In . SVG Version: 6.00 Build 0)  -->
<svg version="1.1" id="Capa_1" xmlns="http://www.w3.org/2000/svg" xmlns:xlink="http://www.w3.org/1999/xlink" x="0px" y="0px"
	 viewBox="0 0 108.3 14.9" style="enable-background:new 0 0 108.3 14.9;" xml:space="preserve">
<style type="text/css">
	.st0{fill:#FFFFFF;}
</style>
<g>
	<g>
		<path class="st0" d="M0,13.1v-11c0-0.4,0.1-0.8,0.4-1.1c0.3-0.3,0.7-0.4,1.1-0.4c0.4,0,0.8,0.1,1.1,0.4c0.3,0.3,0.4,0.7,0.4,1.1
			v9.7h5.7c0.4,0,0.7,0.1,1,0.4c0.3,0.3,0.4,0.6,0.4,1c0,0.4-0.1,0.7-0.4,1c-0.3,0.3-0.6,0.4-1,0.4H1.5c-0.4,0-0.8-0.1-1.1-0.4
			C0.1,13.9,0,13.6,0,13.1z"/>
		<path class="st0" d="M17.7,14.9c-1.9,0-3.4-0.5-4.4-1.6c-1.1-1.1-1.6-2.6-1.6-4.6V2.2c0-0.4,0.1-0.8,0.4-1.1
			c0.3-0.3,0.7-0.4,1.1-0.4c0.4,0,0.8,0.1,1.1,0.4c0.3,0.3,0.4,0.7,0.4,1.1v6.5c0,1.1,0.3,2,0.8,2.6c0.5,0.6,1.3,0.9,2.2,0.9
			c1,0,1.7-0.3,2.2-0.9c0.5-0.6,0.8-1.4,0.8-2.5V2.2c0-0.4,0.1-0.8,0.4-1.1c0.3-0.3,0.7-0.4,1.1-0.4c0.4,0,0.8,0.1,1.1,0.4
			c0.3,0.3,0.4,0.7,0.4,1.1v6.4c0,2.1-0.5,3.6-1.6,4.7C21.1,14.3,19.6,14.9,17.7,14.9z"/>
		<path class="st0" d="M33.4,14.9c-2,0-3.7-0.7-5.1-2.1c-1.4-1.4-2-3.1-2-5.1v0c0-2,0.7-3.7,2-5.1c1.4-1.4,3.1-2.1,5.2-2.1
			c1.8,0,3.4,0.5,4.6,1.4c0.4,0.3,0.6,0.7,0.6,1.2c0,0.4-0.1,0.8-0.4,1.1c-0.3,0.3-0.6,0.4-1.1,0.4c-0.3,0-0.6-0.1-0.9-0.3
			c-0.9-0.7-1.8-1-2.8-1c-1.2,0-2.1,0.4-2.9,1.3c-0.8,0.8-1.2,1.9-1.2,3.1v0c0,1.2,0.4,2.3,1.1,3.1c0.8,0.8,1.7,1.3,2.9,1.3
			c1.1,0,2.1-0.4,3-1.1c0.3-0.2,0.6-0.3,0.9-0.3c0.4,0,0.7,0.1,1,0.4c0.3,0.3,0.4,0.6,0.4,1c0,0.4-0.2,0.8-0.5,1.1
			C37,14.3,35.4,14.9,33.4,14.9z"/>
		<path class="st0" d="M41.6,13.2v-11c0-0.4,0.1-0.8,0.4-1.1c0.3-0.3,0.7-0.4,1.1-0.4h4.8c1.8,0,3.1,0.5,4.1,1.4
			C52.8,3,53.2,4,53.2,5.3v0c0,2.1-0.9,3.5-2.8,4.2l2.1,2.6c0.3,0.4,0.5,0.8,0.5,1.2c0,0.4-0.1,0.7-0.4,1c-0.3,0.3-0.6,0.4-1,0.4
			c-0.6,0-1.1-0.3-1.5-0.8l-3-3.8h-2.4v3c0,0.4-0.1,0.8-0.4,1.1c-0.3,0.3-0.7,0.4-1.1,0.4c-0.4,0-0.8-0.1-1.1-0.4
			C41.7,14,41.6,13.7,41.6,13.2z M44.6,7.5h3.1c0.7,0,1.3-0.2,1.7-0.5c0.4-0.4,0.6-0.8,0.6-1.4v0c0-0.6-0.2-1.1-0.6-1.5
			c-0.4-0.3-1-0.5-1.8-0.5h-3V7.5z"/>
		<path class="st0" d="M61.7,14.9c-1.9,0-3.4-0.5-4.4-1.6c-1.1-1.1-1.6-2.6-1.6-4.6V2.2c0-0.4,0.1-0.8,0.4-1.1
			c0.3-0.3,0.7-0.4,1.1-0.4c0.4,0,0.8,0.1,1.1,0.4c0.3,0.3,0.4,0.7,0.4,1.1v6.5c0,1.1,0.3,2,0.8,2.6c0.5,0.6,1.3,0.9,2.2,0.9
			c1,0,1.7-0.3,2.2-0.9c0.5-0.6,0.8-1.4,0.8-2.5V2.2c0-0.4,0.1-0.8,0.4-1.1c0.3-0.3,0.7-0.4,1.1-0.4c0.4,0,0.8,0.1,1.1,0.4
			c0.3,0.3,0.4,0.7,0.4,1.1v6.4c0,2.1-0.5,3.6-1.6,4.7C65.1,14.3,63.6,14.9,61.7,14.9z"/>
		<path class="st0" d="M71,13.3V2.2c0-0.4,0.1-0.8,0.4-1.1c0.3-0.3,0.7-0.4,1.1-0.4h0.3c0.6,0,1.1,0.3,1.4,0.8l3.7,6l3.7-6
			c0.3-0.5,0.8-0.8,1.4-0.8h0.3c0.4,0,0.8,0.1,1.1,0.4c0.3,0.3,0.4,0.7,0.4,1.1v11c0,0.4-0.1,0.8-0.4,1.1c-0.3,0.3-0.7,0.4-1.1,0.4
			c-0.4,0-0.8-0.1-1.1-0.4c-0.3-0.3-0.4-0.7-0.4-1.1V6.3l-2.7,4.1c-0.3,0.5-0.8,0.8-1.3,0.8c-0.5,0-0.9-0.3-1.3-0.8L74,6.4v6.9
			c0,0.4-0.1,0.8-0.4,1.1c-0.3,0.3-0.6,0.4-1.1,0.4c-0.4,0-0.8-0.1-1.1-0.4C71.1,14.1,71,13.7,71,13.3z"/>
	</g>
	<g>
		<path class="st0" d="M87.2,13c0-0.5,0.2-0.9,0.5-1.2c0.3-0.3,0.7-0.5,1.2-0.5c0.5,0,0.9,0.2,1.2,0.5c0.3,0.3,0.5,0.7,0.5,1.2v0
			c0,0.5-0.2,0.9-0.5,1.2c-0.3,0.3-0.7,0.5-1.2,0.5c-0.5,0-0.9-0.2-1.2-0.5C87.4,14,87.2,13.6,87.2,13L87.2,13z"/>
		<path class="st0" d="M96.2,14.8c-1,0-1.9-0.3-2.6-0.9c-0.7-0.6-1-1.4-1-2.4v0c0-1.1,0.4-2,1.2-2.6c0.8-0.6,1.8-0.9,3.1-0.9
			c0.9,0,1.8,0.1,2.6,0.4V8.4c0-1.3-0.8-2-2.3-2c-0.8,0-1.5,0.1-2.1,0.3c-0.2,0.1-0.3,0.1-0.4,0.1c-0.3,0-0.6-0.1-0.9-0.4
			c-0.2-0.2-0.4-0.5-0.4-0.9c0-0.3,0.1-0.5,0.2-0.7c0.2-0.2,0.3-0.4,0.6-0.5c1-0.4,2.1-0.6,3.4-0.6c1.6,0,2.8,0.4,3.6,1.2
			c0.8,0.8,1.2,1.9,1.2,3.4v4.9c0,0.4-0.1,0.8-0.4,1s-0.6,0.4-1,0.4c-0.4,0-0.8-0.1-1-0.4c-0.3-0.3-0.4-0.5-0.4-0.9v0
			C98.6,14.4,97.5,14.8,96.2,14.8z M97.1,12.8c0.7,0,1.3-0.2,1.7-0.5c0.4-0.4,0.7-0.8,0.7-1.3v-0.5c-0.6-0.3-1.2-0.4-1.9-0.4
			c-0.7,0-1.2,0.1-1.5,0.4c-0.4,0.3-0.6,0.6-0.6,1.1v0c0,0.4,0.2,0.7,0.5,0.9C96.2,12.6,96.6,12.8,97.1,12.8z"/>
		<path class="st0" d="M104.9,1.5L104.9,1.5c0-0.5,0.2-0.8,0.5-1.1s0.7-0.4,1.2-0.4c0.5,0,0.9,0.1,1.2,0.4s0.5,0.6,0.5,1v0
			c0,0.4-0.2,0.8-0.5,1s-0.7,0.4-1.2,0.4c-0.5,0-0.9-0.1-1.2-0.4S104.9,1.9,104.9,1.5z M105.1,13.3V5.4c0-0.4,0.1-0.8,0.4-1.1
			c0.3-0.3,0.7-0.4,1.1-0.4s0.8,0.1,1.1,0.4c0.3,0.3,0.4,0.7,0.4,1.1v7.9c0,0.4-0.1,0.8-0.4,1.1c-0.3,0.3-0.7,0.4-1.1,0.4
			s-0.8-0.1-1.1-0.4C105.2,14,105.1,13.7,105.1,13.3z"/>
	</g>
</g>
</svg>
