<?xml version="1.0" standalone="no"?>
<!DOCTYPE svg PUBLIC "-//W3C//DTD SVG 20010904//EN"
 "http://www.w3.org/TR/2001/REC-SVG-20010904/DTD/svg10.dtd">
<svg version="1.0" xmlns="http://www.w3.org/2000/svg"
 width="184.000000pt" height="184.000000pt" viewBox="0 0 184.000000 184.000000"
 preserveAspectRatio="xMidYMid meet">
<metadata>
Created by potrace 1.11, written by Peter Selinger 2001-2013
</metadata>
<g transform="translate(0.000000,184.000000) scale(0.100000,-0.100000)"
fill="#000000" stroke="none">
<path d="M785 1704 c-104 -14 -327 -84 -358 -113 -4 -4 18 -25 48 -46 119 -81
240 -224 310 -365 15 -30 29 -57 31 -59 6 -7 142 42 194 71 76 42 126 82 187
146 49 53 51 57 38 81 -23 45 -54 158 -56 206 -2 25 -7 49 -13 52 -36 23 -282
39 -381 27z"/>
<path d="M1224 1607 c7 -68 44 -170 57 -161 11 6 63 107 73 142 7 19 2 25 -36
41 -24 11 -56 23 -72 27 l-29 7 7 -56z"/>
<path d="M1393 1573 c-13 -37 -43 -99 -67 -138 -19 -31 -22 -44 -14 -60 14
-24 108 -125 118 -125 10 0 58 101 86 183 l23 68 -42 30 c-23 17 -54 37 -70
45 -25 13 -28 13 -34 -3z"/>
<path d="M304 1509 c-61 -46 -129 -113 -161 -159 -29 -42 174 -177 329 -220
67 -18 169 -27 265 -22 l32 2 -21 48 c-64 147 -209 304 -365 395 -6 4 -41 -15
-79 -44z"/>
<path d="M1545 1392 c-15 -42 -38 -98 -51 -124 l-23 -46 32 -19 c41 -24 112
-50 158 -58 56 -10 129 -13 134 -6 2 4 -13 43 -34 87 -38 79 -116 187 -164
224 l-25 20 -27 -78z"/>
<path d="M1220 1301 c-88 -94 -212 -170 -334 -205 -52 -15 -57 -19 -52 -39 21
-70 37 -183 38 -254 0 -46 3 -82 7 -80 156 71 345 224 454 370 89 118 88 102
8 185 -39 39 -72 72 -73 71 -2 0 -23 -22 -48 -48z"/>
<path d="M88 1268 c-62 -111 -88 -223 -84 -353 1 -55 9 -118 16 -140 32 -97
43 -125 54 -134 32 -27 320 -45 429 -27 20 3 53 9 73 12 59 9 136 30 209 57
l40 14 3 79 c3 79 -8 173 -30 250 l-12 42 -98 -3 c-118 -3 -220 15 -318 55
-78 32 -191 103 -229 144 -30 32 -37 32 -53 4z"/>
<path d="M1400 1113 c-102 -152 -291 -319 -448 -398 l-80 -40 -22 -89 c-33
-134 -100 -277 -165 -355 -14 -16 -22 -32 -18 -34 23 -14 151 -29 245 -29 118
0 238 18 238 36 0 6 -7 34 -16 61 -47 149 -12 353 83 492 117 171 319 270 533
261 57 -2 74 0 72 10 -1 7 -3 24 -4 37 -2 22 -7 25 -43 26 -92 1 -177 21 -261
59 -37 16 -67 30 -68 30 0 0 -21 -31 -46 -67z"/>
<path d="M1610 968 c-169 -39 -285 -120 -373 -259 -76 -120 -102 -300 -62
-437 l18 -64 34 7 c42 8 173 62 194 81 8 8 19 14 24 14 14 0 139 98 181 142
42 44 109 138 137 193 48 96 85 302 57 320 -17 11 -168 13 -210 3z"/>
<path d="M790 639 c-44 -18 -205 -57 -266 -65 -107 -15 -376 -6 -406 12 -4 3
-8 -1 -8 -8 1 -21 101 -138 160 -187 33 -26 54 -51 52 -60 -8 -38 -49 -104
-93 -150 -27 -28 -43 -51 -36 -51 21 0 176 55 248 87 l66 30 49 -18 c27 -11
51 -19 54 -19 10 0 80 99 115 163 37 67 77 175 89 240 4 20 6 37 4 36 -2 0
-14 -5 -28 -10z"/>
</g>
</svg>
